<svg width="27" height="15" viewBox="0 0 27 15" fill="none" xmlns="http://www.w3.org/2000/svg">
<path fill-rule="evenodd" clip-rule="evenodd" d="M26.3804 1.0157C26.5681 0.430217 26.3804 0 25.4872 0H22.5334C21.7823 0 21.4361 0.371644 21.2483 0.78146C21.2483 0.78146 19.7462 4.2065 17.6182 6.43129C16.9298 7.0753 16.6168 7.2802 16.2413 7.2802C16.0535 7.2802 15.7817 7.07529 15.7817 6.48986V1.0157C15.7817 0.313121 15.5638 0 14.9378 0H10.2961C9.82681 0 9.54454 0.326085 9.54454 0.635126C9.54454 1.30116 10.6085 1.45475 10.7181 3.3283V7.39735C10.7181 8.28947 10.5459 8.45122 10.1704 8.45122C9.16901 8.45122 6.73321 5.01088 5.28855 1.07423C5.00543 0.309079 4.72147 0 3.96655 0H1.01274C0.168798 0 0 0.371644 0 0.78146C0 1.51333 1.00141 5.14327 4.66272 9.94414C7.10357 13.2228 10.5426 15 13.6719 15C15.5495 15 15.7818 14.6053 15.7818 13.9253V11.4474C15.7818 10.6579 15.9597 10.5003 16.5542 10.5003C16.9923 10.5003 17.7434 10.7052 19.4959 12.286C21.4986 14.1595 21.8288 15 22.9553 15H25.9092C26.7531 15 27.1751 14.6053 26.9316 13.8263C26.6653 13.0499 25.709 11.9234 24.4402 10.5881C23.7517 9.82704 22.7191 9.00742 22.4061 8.5975C21.968 8.07064 22.0932 7.8364 22.4061 7.36806C22.4061 7.36806 26.0049 2.62572 26.3804 1.0157Z" fill="white"/>
</svg>
