<svg width="26" height="18" viewBox="0 0 26 18" fill="none" xmlns="http://www.w3.org/2000/svg">
<path d="M25.4582 2.81045C25.1604 1.70591 24.2794 0.834546 23.1584 0.535909C21.1317 1.9507e-07 13 0 13 0C13 0 4.87242 1.9507e-07 2.84155 0.535909C1.72479 0.830455 0.84378 1.70182 0.541839 2.81045C0 4.815 0 9 0 9C0 9 0 13.185 0.541839 15.1895C0.839644 16.2941 1.72065 17.1655 2.84155 17.4641C4.87242 18 13 18 13 18C13 18 21.1317 18 23.1584 17.4641C24.2752 17.1695 25.1562 16.2982 25.4582 15.1895C26 13.185 26 9 26 9C26 9 26 4.815 25.4582 2.81045Z" fill="white"/>
<path d="M10.4025 12.8577L17.1569 9L10.4025 5.14227V12.8577Z" fill="#040406"/>
</svg>
