<svg width="157" height="24" viewBox="0 0 157 24" fill="none" xmlns="http://www.w3.org/2000/svg">
<path d="M0 0.0342363H6.22029L22.1913 22.9729V0.0342363H25.5536V24H19.1988L3.36232 1.40371V24H0V0.0342363Z" fill="white"/>
<path d="M30.0405 0H53.0387V3.32097H33.3019V10.4765H49.7773V13.7632H33.3019V23.9657H30.0405V0Z" fill="white"/>
<path d="M64.2883 3.32097H53.0245L53.0387 0L78.9144 0.0342363V3.32097H67.6506V23.9657H64.2883V3.32097Z" fill="white"/>
<path d="M85.2797 20.6448H94.3907C95.0856 20.6448 95.7469 20.485 96.3745 20.1655C97.0021 19.8231 97.5065 19.378 97.8876 18.8302C98.2686 18.2596 98.4592 17.6548 98.4592 17.0157V0.0342363H101.721V17.0157C101.721 18.2026 101.384 19.3324 100.712 20.4051C100.062 21.4779 99.1764 22.3452 98.0557 23.0071C96.9349 23.6462 95.7133 23.9657 94.3907 23.9657H85.2797V20.6448Z" fill="white"/>
<path d="M106.201 0.0342363H129.3V3.3552H109.563V10.5107H126.039V13.7974H109.563V20.679H129.3V24H106.201V0.0342363Z" fill="white"/>
<path d="M142.374 3.32097L129.3 3.3552V0.0342363H157V3.32097H145.736V24H142.374V3.32097Z" fill="white"/>
<path d="M88.0816 3.32097H84.014L84.0282 0L94.3019 0.0342363V3.32097H91.4439H88.0816Z" fill="white"/>
<path d="M75.3795 24H71.3119L71.3261 20.679L81.5998 20.7133V24H78.7419H75.3795Z" fill="white"/>
<path d="M75.3795 19.2449H71.3119L71.3261 15.9239C76.5985 11.6252 77.8079 11.6367 81.5998 15.9582V19.2449H78.7419H75.3795Z" fill="url(#paint0_linear_4_40)"/>
<path d="M88.0816 4.51167H84.014L84.0282 7.83263C88.0816 11.6367 89.9496 11.6367 94.3019 7.7984V4.51167H91.4439H88.0816Z" fill="url(#paint1_linear_4_40)"/>
<defs>
<linearGradient id="paint0_linear_4_40" x1="-43.5607" y1="-27.7091" x2="64.9939" y2="70.2735" gradientUnits="userSpaceOnUse">
<stop stop-color="#89C6FF"/>
<stop offset="1" stop-color="#3633D0"/>
</linearGradient>
<linearGradient id="paint1_linear_4_40" x1="-43.5607" y1="-27.7091" x2="64.9939" y2="70.2735" gradientUnits="userSpaceOnUse">
<stop stop-color="#89C6FF"/>
<stop offset="1" stop-color="#3633D0"/>
</linearGradient>
</defs>
</svg>
