<svg width="85" height="13" viewBox="0 0 85 13" fill="none" xmlns="http://www.w3.org/2000/svg">
<path d="M0 0.0179998H3.33L11.88 12.078V0.0179998H13.68V12.618H10.278L1.8 0.738V12.618H0V0.0179998Z" fill="black"/>
<path d="M16.082 0H28.394V1.746H17.828V5.508H26.648V7.236H17.828V12.6H16.082V0Z" fill="black"/>
<path d="M34.4164 1.746H28.3864L28.394 0L42.2464 0.0179998V1.746H36.2164V12.6H34.4164V1.746Z" fill="black"/>
<path d="M45.6541 10.854H50.5316C50.9036 10.854 51.2576 10.77 51.5936 10.602C51.9296 10.422 52.1996 10.188 52.4036 9.9C52.6076 9.6 52.7096 9.282 52.7096 8.946V0.0179998H54.4556V8.946C54.4556 9.57 54.2756 10.164 53.9156 10.728C53.5676 11.292 53.0936 11.748 52.4936 12.096C51.8936 12.432 51.2396 12.6 50.5316 12.6H45.6541V10.854Z" fill="black"/>
<path d="M56.8543 0.0179998H69.2203V1.764H58.6543V5.526H67.4743V7.254H58.6543V10.872H69.2203V12.618H56.8543V0.0179998Z" fill="black"/>
<path d="M76.2192 1.746L69.2203 1.764V0.0179998H84.0492V1.746H78.0192V12.618H76.2192V1.746Z" fill="black"/>
<path d="M47.1541 1.746H44.9765L44.9841 0L50.4841 0.0179998V1.746H48.9541H47.1541Z" fill="black"/>
<path d="M40.3541 12.618H38.1765L38.1841 10.872L43.6841 10.89V12.618H42.1541H40.3541Z" fill="black"/>
<path d="M40.3541 10.118H38.1765L38.1841 8.37201C41.0066 6.11197 41.6541 6.11801 43.6841 8.39001V10.118H42.1541H40.3541Z" fill="#0AB8B6"/>
<path d="M47.1541 2.37201H44.9765L44.9841 4.11801C47.1541 6.11801 48.1541 6.11801 50.4841 4.10001V2.37201H48.9541H47.1541Z" fill="#0AB8B6"/>
</svg>
