<svg width="17" height="16" viewBox="0 0 17 16" fill="none" xmlns="http://www.w3.org/2000/svg">
<path d="M15.6514 1.48013C14.7714 0.525672 13.5639 0 12.2511 0C11.2697 0 10.3711 0.31025 9.57987 0.922051C9.18066 1.23084 8.81892 1.60869 8.5 2.04963C8.18118 1.60879 7.81934 1.23084 7.42 0.922051C6.62894 0.31025 5.73026 0 4.74894 0C3.43612 0 2.22849 0.525672 1.34848 1.48013C0.478988 2.42343 0 3.71214 0 5.109C0 6.54669 0.535799 7.8628 1.68609 9.25082C2.71512 10.4925 4.19409 11.7529 5.90677 13.2124C6.49161 13.7108 7.15451 14.2758 7.84281 14.8776C8.02468 15.0369 8.25824 15.1246 8.5 15.1246C8.74189 15.1246 8.97534 15.0369 9.15692 14.8779C9.84522 14.2759 10.5085 13.7107 11.0936 13.212C12.806 11.7527 14.285 10.4925 15.314 9.25069C16.4643 7.86283 17 6.54673 17 5.10887C17 3.71214 16.521 2.42343 15.6514 1.48013Z" fill="url(#paint0_linear_190_606)"/>
<defs>
<linearGradient id="paint0_linear_190_606" x1="-4.71676" y1="-17.462" x2="16.1129" y2="-14.2316" gradientUnits="userSpaceOnUse">
<stop stop-color="#89C6FF"/>
<stop offset="1" stop-color="#3633D0"/>
</linearGradient>
</defs>
</svg>
