<svg width="26" height="28" viewBox="0 0 26 28" fill="none" xmlns="http://www.w3.org/2000/svg">
<path d="M22.9416 11.5743H22.8723V9.87628C22.8723 4.42177 18.4506 0 12.996 0C7.5414 0 3.1197 4.42177 3.1197 9.87628V11.5743H2.70388C1.17911 11.5743 0.000900935 12.9258 0.000900935 14.4852V18.8169C-0.0375037 20.3284 1.15669 21.5848 2.66813 21.6232C2.68007 21.6235 2.69194 21.6237 2.70388 21.6238H5.26823C5.63145 21.6068 5.91209 21.2984 5.89498 20.9352C5.89438 20.9221 5.89339 20.9091 5.89199 20.8961V12.4059C5.89199 11.9901 5.64943 11.5742 5.26823 11.5742H4.50585V9.87622C4.50585 5.18727 8.30704 1.38608 12.996 1.38608C17.6849 1.38608 21.4861 5.18727 21.4861 9.87622V11.5742H20.7237C20.3425 11.5742 20.1 11.9901 20.1 12.4059V20.8961C20.0613 21.2576 20.323 21.5821 20.6846 21.6208C20.6976 21.6222 20.7107 21.6232 20.7237 21.6238H21.5207L21.4514 21.7277C20.9386 22.4093 20.2736 22.9616 19.5095 23.3406C18.7454 23.7197 17.9034 23.9149 17.0504 23.9109C16.6718 22.0544 14.8598 20.8563 13.0033 21.235C11.4158 21.5587 10.2711 22.9491 10.2583 24.5693C10.2773 26.4697 11.8233 28.0001 13.7237 28C14.6644 27.9848 15.5611 27.5987 16.2187 26.9257C16.6624 26.4714 16.9531 25.8899 17.0504 25.2623C18.1185 25.2664 19.1729 25.021 20.1294 24.5457C21.086 24.0705 21.9184 23.3784 22.5603 22.5247L23.2188 21.5544C24.7089 21.4505 25.6445 20.5148 25.6445 19.1633V14.8316C25.6446 13.3417 24.5357 11.5743 22.9416 11.5743ZM4.50585 20.2377H2.70388C1.95768 20.2195 1.36748 19.5999 1.38566 18.8537C1.38599 18.8415 1.38645 18.8292 1.38705 18.8169V14.4852C1.38705 13.6882 1.94149 12.9604 2.70388 12.9604H4.50585V20.2377ZM15.2138 25.9555C15.0238 26.1615 14.7935 26.3263 14.5372 26.4396C14.2809 26.5528 14.004 26.6122 13.7237 26.614C12.5963 26.5961 11.6813 25.6964 11.6445 24.5694C11.6441 23.4402 12.5591 22.5245 13.6883 22.524C14.8174 22.5235 15.7332 23.4385 15.7337 24.5677V24.5694C15.7479 24.8239 15.7091 25.0785 15.6196 25.3172C15.5301 25.5558 15.3919 25.7732 15.2138 25.9555ZM24.2584 19.1634C24.2584 20.0991 23.3574 20.2377 22.9416 20.2377H21.4861V12.9605H22.9416C23.704 12.9605 24.2584 14.0347 24.2584 14.8317V19.1634Z" fill="white"/>
</svg>
