<svg width="20" height="17" viewBox="0 0 20 17" fill="none" xmlns="http://www.w3.org/2000/svg">
<path d="M9.74452 17C7.76437 17 2.93978 11.4822 1.50897 9.79073C0.528605 8.636 -0.00657752 7.16879 6.10253e-05 5.65404C0.00669957 4.13929 0.554722 2.67683 1.54517 1.53074C2.52531 0.550623 3.85465 0 5.24076 0C6.62687 0 7.95621 0.550623 8.93635 1.53074L9.74362 2.33801L10.5509 1.53074C11.531 0.550623 12.8604 0 14.2465 0C15.6326 0 16.9619 0.550623 17.9421 1.53074C18.9365 2.68503 19.4835 4.15797 19.4835 5.68155C19.4835 7.20512 18.9365 8.67807 17.9421 9.83236C16.5484 11.4822 11.7229 17 9.74362 17H9.74452ZM5.24212 1.35789C4.73385 1.35662 4.23038 1.4561 3.76079 1.65058C3.29121 1.84507 2.86482 2.13069 2.50629 2.49095C1.76905 3.39083 1.36619 4.51824 1.36619 5.68155C1.36619 6.84486 1.76905 7.97227 2.50629 8.87215C5.29551 12.1637 8.84585 15.6416 9.74452 15.6416C10.6441 15.6416 14.1935 12.1637 16.9447 8.91378C17.6963 8.01433 18.1111 6.88126 18.1181 5.7092C18.125 4.53713 17.7236 3.39923 16.9828 2.49095C16.2571 1.76555 15.273 1.35805 14.2469 1.35805C13.2208 1.35805 12.2368 1.76555 11.5111 2.49095L10.2242 3.77697C10.0969 3.90407 9.92439 3.97547 9.74452 3.97547C9.56465 3.97547 9.39213 3.90407 9.26487 3.77697L7.97795 2.49095C7.61953 2.13053 7.19317 1.8448 6.72356 1.6503C6.25395 1.45581 5.75041 1.35642 5.24212 1.35789Z" fill="white"/>
</svg>
