<svg width="15" height="16" viewBox="0 0 15 16" fill="none" xmlns="http://www.w3.org/2000/svg">
<path d="M6.60168 15.5C6.33856 15.5002 6.07799 15.4484 5.83496 15.3476C5.59192 15.2467 5.37122 15.0989 5.18554 14.9124L0.58691 10.3139C0.224078 9.95133 0.0142467 9.46332 0.00069916 8.95056C-0.0128484 8.4378 0.170921 7.93939 0.514101 7.55815L5.80223 1.68331C6.10553 1.34688 6.51385 1.12309 6.96063 1.04843L10.0878 0.52713C10.4021 0.474899 10.7244 0.498309 11.0279 0.595421C11.3314 0.692533 11.6074 0.860552 11.833 1.08556L14.4141 3.66659C14.6389 3.89221 14.8069 4.16806 14.9041 4.47137C15.0014 4.77469 15.0251 5.09678 14.9733 5.41106L14.452 8.53887C14.3764 8.98528 14.1525 9.39315 13.8163 9.69651L7.94064 14.9853C7.57354 15.3169 7.09637 15.5003 6.60168 15.5ZM10.4169 1.59158C10.3666 1.59164 10.3165 1.59578 10.2669 1.60395L7.13974 2.12526C6.93705 2.15945 6.75183 2.26103 6.61406 2.41357L1.32592 8.28914C1.16999 8.46237 1.08646 8.68882 1.09255 8.92182C1.09865 9.15481 1.19391 9.37659 1.35869 9.54143L5.95732 14.1407C6.12216 14.3055 6.34394 14.4007 6.57694 14.4068C6.80994 14.4129 7.0364 14.3294 7.20964 14.1734L13.0853 8.88543C13.2385 8.74773 13.3404 8.56215 13.3744 8.35904L13.8957 5.23195C13.9194 5.089 13.9087 4.94245 13.8646 4.80444C13.8204 4.66644 13.7439 4.54094 13.6416 4.43835L11.0605 1.85805C10.8898 1.68745 10.6583 1.59161 10.4169 1.59158Z" fill="white"/>
<path d="M10.1888 7.31269C9.79277 7.31269 9.40565 7.19526 9.07639 6.97526C8.74712 6.75525 8.49048 6.44255 8.33894 6.07669C8.18739 5.71084 8.14774 5.30826 8.225 4.91987C8.30225 4.53148 8.49295 4.17472 8.77297 3.89471C9.05299 3.61469 9.40976 3.424 9.79816 3.34675C10.1866 3.26949 10.5891 3.30914 10.955 3.46068C11.3209 3.61223 11.6336 3.86885 11.8536 4.19811C12.0736 4.52738 12.191 4.91448 12.191 5.31048C12.1905 5.84132 11.9793 6.35026 11.6039 6.72562C11.2286 7.10098 10.7196 7.31211 10.1888 7.31269ZM10.1888 4.40039C10.0088 4.40039 9.83281 4.45376 9.68314 4.55377C9.53348 4.65377 9.41683 4.79591 9.34794 4.9622C9.27906 5.1285 9.26103 5.31149 9.29615 5.48803C9.33127 5.66457 9.41795 5.82674 9.54523 5.95402C9.67251 6.08129 9.83468 6.16797 10.0112 6.20309C10.1878 6.2382 10.3708 6.22018 10.5371 6.1513C10.7034 6.08242 10.8455 5.96577 10.9455 5.8161C11.0455 5.66644 11.0989 5.49048 11.0989 5.31048C11.0987 5.06917 11.0028 4.83779 10.8321 4.66716C10.6615 4.49653 10.4301 4.40058 10.1888 4.40039Z" fill="white"/>
</svg>
