<svg width="16" height="16" viewBox="0 0 16 16" fill="none" xmlns="http://www.w3.org/2000/svg">
<path d="M15.0071 15.1837C15.2062 15.3751 15.5227 15.3688 15.7141 15.1697C15.9054 14.9706 15.8991 14.6541 15.7 14.4627L15.0071 15.1837ZM11.5 6.67677C11.5 9.4382 9.26142 11.6768 6.5 11.6768V12.6768C9.81371 12.6768 12.5 9.99048 12.5 6.67677H11.5ZM6.5 11.6768C3.73858 11.6768 1.5 9.4382 1.5 6.67677H0.5C0.5 9.99048 3.18629 12.6768 6.5 12.6768V11.6768ZM1.5 6.67677C1.5 3.91535 3.73858 1.67677 6.5 1.67677V0.676773C3.18629 0.676773 0.5 3.36306 0.5 6.67677H1.5ZM6.5 1.67677C9.26142 1.67677 11.5 3.91535 11.5 6.67677H12.5C12.5 3.36306 9.81371 0.676773 6.5 0.676773V1.67677ZM10.2956 10.6559L15.0071 15.1837L15.7 14.4627L10.9885 9.93484L10.2956 10.6559Z" fill="#9E9E9E"/>
</svg>
