<svg width="11" height="11" viewBox="0 0 11 11" fill="none" xmlns="http://www.w3.org/2000/svg">
<mask id="mask0_19_891" style="mask-type:luminance" maskUnits="userSpaceOnUse" x="0" y="0" width="11" height="11">
<path d="M0 0H11V11H0V0Z" fill="white"/>
</mask>
<g mask="url(#mask0_19_891)">
<path fill-rule="evenodd" clip-rule="evenodd" d="M5.12671 0.431063C4.94865 0.499813 4.7864 0.647626 4.46258 0.941188C4.30927 1.08006 4.23296 1.1495 4.14771 1.20106C4.0327 1.2707 3.90518 1.31718 3.77233 1.33788C3.67402 1.353 3.5709 1.34888 3.36465 1.34131C2.9274 1.32413 2.70877 1.31588 2.52727 1.37706C2.28361 1.46011 2.07983 1.63128 1.95596 1.85694C1.86383 2.02469 1.83427 2.24125 1.77515 2.67506C1.74765 2.87925 1.73321 2.98169 1.7009 3.07588C1.65759 3.20303 1.58987 3.3205 1.50152 3.42169C1.43552 3.49731 1.35371 3.55988 1.19077 3.68638C0.844958 3.9545 0.671708 4.08856 0.572708 4.25219C0.439221 4.47263 0.393111 4.73507 0.443458 4.98781C0.480583 5.17481 0.597458 5.35975 0.83052 5.73031C0.94052 5.90494 0.99552 5.99156 1.03127 6.08506C1.07982 6.21037 1.10341 6.34396 1.10071 6.47831C1.09865 6.578 1.07733 6.67906 1.03333 6.8805C0.94052 7.30881 0.894458 7.52263 0.923333 7.71169C0.963208 7.96606 1.0959 8.19638 1.29665 8.35794C1.44583 8.47756 1.65415 8.54425 2.07146 8.67831C2.2674 8.74088 2.36571 8.7725 2.45302 8.82063C2.57073 8.88536 2.67465 8.97247 2.75896 9.07706C2.82152 9.15475 2.86965 9.24619 2.96521 9.42838C3.17008 9.81613 3.27183 10.01 3.41552 10.1358C3.60924 10.3054 3.85938 10.3964 4.11677 10.3909C4.3079 10.3868 4.51071 10.3043 4.91633 10.1386C5.10677 10.0602 5.20233 10.0217 5.30065 10.0024C5.43196 9.97631 5.56808 9.97631 5.6994 10.0024C5.79771 10.0217 5.89327 10.0609 6.0844 10.1386C6.48933 10.3036 6.69215 10.3868 6.88327 10.3909C7.14066 10.3964 7.3908 10.3054 7.58452 10.1358C7.72821 10.01 7.82996 9.81613 8.03415 9.42838C8.1304 9.24619 8.17852 9.15475 8.24108 9.07775C8.32532 8.97291 8.42925 8.88557 8.54702 8.82063C8.63433 8.7725 8.73265 8.74088 8.92927 8.67831C9.34589 8.54425 9.5549 8.47756 9.7034 8.35794C9.90415 8.19668 10.0373 7.96616 10.0767 7.71169C10.1056 7.52263 10.0595 7.30813 9.96671 6.8805C9.9234 6.67906 9.9014 6.578 9.89933 6.47831C9.89642 6.344 9.91977 6.21042 9.96808 6.08506C10.0045 5.99225 10.0595 5.90494 10.1695 5.73031C10.4033 5.35975 10.5201 5.17481 10.5566 4.98781C10.6069 4.73507 10.5608 4.47263 10.4273 4.25219C10.3283 4.08856 10.1551 3.9545 9.80858 3.68638C9.64633 3.55988 9.56452 3.49663 9.49921 3.42169C9.41086 3.3205 9.34313 3.20303 9.29983 3.07588C9.26683 2.98169 9.25308 2.87925 9.2249 2.67506C9.16577 2.24125 9.13621 2.02469 9.04408 1.85694C8.92021 1.63128 8.71643 1.46011 8.47277 1.37706C8.29127 1.31519 8.07265 1.32413 7.6354 1.34131C7.42915 1.34888 7.32602 1.353 7.22771 1.33788C7.09486 1.31718 6.96734 1.2707 6.85233 1.20106C6.76708 1.1495 6.69077 1.08006 6.53746 0.941188C6.21364 0.647626 6.0514 0.500501 5.87333 0.431063C5.63319 0.337808 5.36685 0.337808 5.12671 0.431063ZM7.58315 4.83313C7.67422 4.73538 7.72381 4.6061 7.72145 4.47252C7.7191 4.33893 7.66498 4.21148 7.57051 4.11701C7.47604 4.02254 7.34859 3.96843 7.215 3.96607C7.08142 3.96371 6.95214 4.0133 6.8544 4.10438L4.81252 6.14625L3.97377 5.3075C3.92657 5.25684 3.86964 5.21621 3.80639 5.18803C3.74314 5.15984 3.67486 5.14469 3.60563 5.14347C3.5364 5.14225 3.46763 5.15498 3.40342 5.18092C3.33922 5.20685 3.28089 5.24545 3.23193 5.29441C3.18297 5.34338 3.14437 5.4017 3.11844 5.4659C3.0925 5.53011 3.07977 5.59888 3.08099 5.66811C3.08221 5.73734 3.09736 5.80562 3.12555 5.86887C3.15373 5.93212 3.19436 5.98905 3.24502 6.03625L4.44814 7.23938C4.54483 7.33594 4.67588 7.39017 4.81252 7.39017C4.94916 7.39017 5.08022 7.33594 5.1769 7.23938L7.58315 4.83313Z" fill="#0593FF"/>
</g>
</svg>
