<svg width="12" height="12" viewBox="0 0 12 12" fill="none" xmlns="http://www.w3.org/2000/svg">
<path d="M0.792893 9.79289C0.402369 10.1834 0.402369 10.8166 0.792893 11.2071C1.18342 11.5976 1.81658 11.5976 2.20711 11.2071L0.792893 9.79289ZM11.5 1.5C11.5 0.947715 11.0523 0.5 10.5 0.5H1.5C0.947716 0.5 0.5 0.947715 0.5 1.5C0.5 2.05228 0.947716 2.5 1.5 2.5H9.5V10.5C9.5 11.0523 9.94772 11.5 10.5 11.5C11.0523 11.5 11.5 11.0523 11.5 10.5V1.5ZM2.20711 11.2071L11.2071 2.20711L9.79289 0.792893L0.792893 9.79289L2.20711 11.2071Z" fill="white"/>
</svg>
